<?xml version="1.0" encoding="utf-8"?>
<!-- Generator: Adobe Illustrator 19.2.1, SVG Export Plug-In . SVG Version: 6.00 Build 0)  -->
<svg version="1.1" id="layer" xmlns="http://www.w3.org/2000/svg" xmlns:xlink="http://www.w3.org/1999/xlink" x="0px" y="0px"
	 viewBox="0 0 652 652" style="enable-background:new 0 0 652 652;" xml:space="preserve">
<style type="text/css">
	.st0{fill:#002E6E;}
</style>
<path class="st0" d="M190.1,354.7L190.1,354.7v-136h54.7v135.7c0,21.1,17.1,38.2,38.2,38.2s38.2-17.1,38.2-38.2
	c0-21.1-17.1-38.2-38.2-38.2h-16.5v-54.4h16.5c51.2,0,92.9,41.3,92.9,92.5c0,50.9-41.6,92.6-92.9,92.6
	C231.7,447.2,190.1,405.9,190.1,354.7 M428.6,365.5c17.1,0,31.1,14,31.1,30.7c0,17.1-14,30.7-31.1,30.7c-17.1,0-31.1-14-31.1-30.7
	C397.5,379.2,411.2,365.5,428.6,365.5 M428.6,282.6c17.1,0,31.1,14,31.1,30.7c0,17.1-14,30.7-31.1,30.7c-17.1,0-31.1-14-31.1-30.7
	C397.5,296.6,411.2,282.6,428.6,282.6 M571.8,321.4c0-137.9-112.1-250-250.6-250c-138.5,0-250.6,111.8-250.6,250v250h250.6
	C459.3,571.5,571.8,459.3,571.8,321.4"/>
<path class="st0" d="M520.5,506.4c-10,0-17.4,7.5-17.4,17.4s7.5,18,17.4,17.4c9.3,0,17.4-7.5,17.4-17.4S530.5,506.4,520.5,506.4z
	 M520.5,538.1c-8.1,0-14.3-5.6-14.3-14.3c0-8.1,6.2-14.3,14.3-14.3c8.1,0,14.3,6.2,14.3,14.3C534.8,532.5,528.6,538.1,520.5,538.1z"
	/>
<path class="st0" d="M527.5,519.6c0-3.4-2.9-5.7-6.3-5.7h-7.5v18.9h4.1v-6.9h2.3l3.5,6.9h5.2l-4.6-7.5
	C526.3,524.1,527.5,521.8,527.5,519.6z M519.8,522.4h-2.2v-5.2h2.2c2.4,0,3.6,0.6,3.6,2.3C523.4,521.8,521.6,522.4,519.8,522.4z"/>
</svg>
