<svg id="Layer_1" data-name="Layer 1" xmlns="http://www.w3.org/2000/svg" xmlns:xlink="http://www.w3.org/1999/xlink" viewBox="0 0 2444.05 1648.15"><defs><linearGradient id="linear-gradient" x1="1627.2" y1="3469.08" x2="1627.2" y2="1138.22" gradientTransform="translate(99.41 -378.91) scale(0.71)" gradientUnits="userSpaceOnUse"><stop offset="0" stop-color="#efc119"/><stop offset="0.33" stop-color="#92c84e"/><stop offset="0.49" stop-color="#71bf5b"/><stop offset="0.75" stop-color="#15b158"/><stop offset="0.9" stop-color="#23ac69"/><stop offset="1" stop-color="#23ac69"/></linearGradient></defs><path d="M77.89,1172,1173.28,446.51a154.14,154.14,0,0,1,153.92,0L2422.59,1172c43,21.48,62,72.79,40.57,116.94a83.78,83.78,0,0,1-40.57,40.57l-146.77,96.65c-359.16-566.78-1108.51-735-1675.3-377.06-151.54,96.65-280.4,224.33-377.06,377.06l-148-96.65a88.72,88.72,0,0,1-38.18-118.13C46.87,1194.66,61.18,1180.35,77.89,1172Zm1170.56-8.35c-313.82,1.19-606.16,162.28-773.21,428.37l251.77,167c173-287.57,546.5-379.44,832.87-206.43a610.12,610.12,0,0,1,206.43,206.43l251.77-167A899.63,899.63,0,0,0,1248.45,1163.64Zm0,606.16a310.55,310.55,0,0,0-267.28,157.51l169.43,111c27.45,23.86,62.05,35.8,97.85,35.8s71.59-13.13,97.84-35.8l169.44-111C1462,1829.46,1359.42,1769.8,1248.45,1769.8Z" transform="translate(-27.97 -425.92)" style="fill:url(#linear-gradient)"/></svg>